<?xml version="1.0" encoding="UTF-8" standalone="no"?>
<svg width="600px" height="100px" viewBox="0 0 600 100" version="1.1" xmlns="http://www.w3.org/2000/svg" xmlns:xlink="http://www.w3.org/1999/xlink" xmlns:sketch="http://www.bohemiancoding.com/sketch/ns">
    <!-- Generator: Sketch 3.2.2 (9983) - http://www.bohemiancoding.com/sketch -->
    <title>A4</title>
    <desc>Created with Sketch.</desc>
    <defs></defs>
    <g id="Page-1" stroke="none" stroke-width="1" fill="none" fill-rule="evenodd" sketch:type="MSPage">
        <g id="A4" sketch:type="MSArtboardGroup" fill="#444444">
            <path d="M585.789201,28.4304023 C585.821847,29.2325448 585.840502,30.0394057 585.840502,30.8509851 C585.840502,55.5380986 567.269665,84 533.308633,84 C522.880609,84 513.175459,80.9093923 505,75.6105337 C506.445746,75.7803992 507.91481,75.8700504 509.407192,75.8700504 C518.058348,75.8700504 526.019277,72.8832494 532.338584,67.8722183 C524.2564,67.7212268 517.438076,62.3185615 515.092238,54.8963846 C516.216188,55.1181534 517.372785,55.2361155 518.562027,55.2361155 C520.245621,55.2361155 521.877915,55.0049098 523.426262,54.5802461 C514.980309,52.8627176 508.619028,45.3131416 508.619028,36.2630874 L508.619028,36.0271632 C511.109441,37.4238347 513.954296,38.2637251 516.981034,38.3628132 C512.028189,35.0126889 508.768266,29.2938851 508.768266,22.8154052 C508.768266,19.3897851 509.677687,16.1812153 511.268007,13.4209016 C520.376205,24.7216731 533.980205,32.162724 549.323764,32.941274 C549.011297,31.5729133 548.848067,30.1479309 548.848067,28.6804821 C548.848067,18.3658739 557.112136,10 567.311639,10 C572.623588,10 577.422531,12.2695913 580.789719,15.9028247 C584.996373,15.0629344 588.946523,13.5105528 592.51425,11.3683606 C591.13846,15.7282408 588.209659,19.3897851 584.394756,21.7018428 C588.130376,21.2535867 591.688776,20.2485494 595,18.7622266 C592.523578,22.5087037 589.394238,25.7974877 585.789201,28.4304023" id="Twitter" sketch:type="MSShapeGroup"></path>
            <path d="M467.484379,72.1055709 C466.126332,72.764064 463.528828,73.3334669 461.589307,73.3838223 C455.74014,73.5426353 454.603971,69.2236949 454.55424,66.0900422 L454.55424,43.0544023 L469.2288,43.0544023 L469.2288,31.8522717 L454.607797,31.8522717 L454.607797,13 L443.90409,13 C443.728117,13 443.418253,13.1588131 443.376173,13.5539089 C442.752619,19.3254078 440.08243,29.4507084 429,33.4946311 L429,43.0544023 L436.394663,43.0544023 L436.394663,67.2327215 C436.394663,75.5103678 442.423627,87.2702809 458.345296,86.9952631 C463.716277,86.9022994 469.680208,84.6246878 471,82.6608288 L467.484379,72.1055709" id="Tumblr" sketch:type="MSShapeGroup"></path>
            <path d="M326.036972,45.3827392 C326.036972,45.3827392 326.864391,55.4840525 326.864391,58.7485929 C326.864391,60.2195122 326.22588,67.8742964 326.22588,67.8742964 C326.22588,68.3508443 325.874511,68.9362101 325.341789,68.9362101 C324.812846,68.9362101 324.419916,68.3320826 324.419916,67.8555347 C324.419916,67.8555347 323.796519,60.8574109 323.796519,58.7598499 C323.796519,55.412758 324.620159,45.3639775 324.620159,45.3639775 C324.620159,44.8874296 324.786399,44.5497186 325.315342,44.5497186 C325.844286,44.5497186 325.950074,44.8874296 326.036972,45.3827392 L326.036972,45.3827392 Z M321.080016,49.6791745 C320.66064,49.6791745 320.456619,50.15197 320.456619,50.3245779 C320.456619,50.3245779 319.863446,56.5384615 319.863446,58.7598499 C319.863446,60.9849906 320.365943,67.8630394 320.365943,67.8630394 C320.365943,68.3395872 320.683309,68.9362101 321.102685,68.9362101 C321.522062,68.9362101 321.809203,68.3320826 321.809203,67.8555347 C321.809203,67.8555347 322.360815,61.5703565 322.326811,58.7485929 C322.28903,55.9268293 321.797868,50.2757974 321.797868,50.2757974 C321.767643,50.0844278 321.499393,49.6791745 321.080016,49.6791745 L321.080016,49.6791745 Z M381.315342,47.1500938 C379.849413,47.1500938 378.455269,47.4540338 377.182027,47.9906191 C376.331939,38.249531 368.254217,31 358.400756,31 C355.990285,31 353.640264,31.4803002 351.56605,32.2945591 C350.757523,32.6097561 350.379706,32.9324578 350.37215,33.5628518 L350.375928,67.4840525 C350.383484,68.1444653 350.916206,68.69606 351.554716,68.7598499 C351.581163,68.7636023 381.122656,68.7786116 381.315342,68.7786116 C387.21684,68.7786116 392,63.9380863 392,57.9643527 C392,51.9906191 387.21684,47.1500938 381.315342,47.1500938 L381.315342,47.1500938 Z M313.17609,49.2814259 C312.922952,49.2814259 312.68115,49.3677298 312.628255,49.8742964 L311.951963,58.8236398 L312.488463,66.6810507 C312.564026,67.2101313 312.779382,67.6566604 313.198759,67.6566604 C313.621913,67.6566604 313.750371,67.2101313 313.882607,66.6998124 L314.430441,58.8123827 L313.788153,49.8780488 C313.720146,49.3827392 313.508568,49.2814259 313.17609,49.2814259 L313.17609,49.2814259 Z M309.224126,53.3001876 C308.80475,53.3001876 308.732965,53.5140713 308.664957,53.9606004 L308,58.8236398 L308.619619,64.2157598 C308.687627,64.6923077 308.827419,64.9549719 309.250573,64.9549719 C309.66995,64.9549719 309.873971,64.5159475 309.919309,64.2195122 L310.478478,58.8123827 L309.839968,53.9005629 C309.771961,53.521576 309.647281,53.3001876 309.224126,53.3001876 L309.224126,53.3001876 Z M317.128053,48.2082552 C316.810687,48.2082552 316.504655,48.3621013 316.504655,48.8386492 L315.903927,58.8236398 L316.417757,68.0356473 C316.504655,68.5609756 316.731345,69 317.150722,69 C317.573877,69 317.728782,68.6060038 317.853461,68.0281426 L318.382405,58.8123827 L317.868574,48.8123827 C317.800567,48.3208255 317.551208,48.2082552 317.128053,48.2082552 L317.128053,48.2082552 Z M347.534746,33.9118199 C347.028471,33.9118199 346.707327,34.3846154 346.707327,34.8611632 C346.707327,34.8611632 345.906355,40.358349 345.906355,58.7598499 C345.906355,62.7748593 346.559978,67.7242026 346.559978,67.7242026 C346.559978,68.1969981 347.054918,68.9362101 347.564971,68.9362101 C348.071245,68.9362101 348.532182,68.2195122 348.532182,67.7429644 C348.532182,67.7429644 349.197139,62.8499062 349.197139,58.7485929 C349.197139,39.3076923 348.39239,34.8386492 348.39239,34.8386492 C348.30927,34.3395872 348.04102,33.9118199 347.534746,33.9118199 L347.534746,33.9118199 Z M329.758467,39.7954972 C329.229524,39.7954972 329.002834,40.1819887 329.002834,40.6585366 C329.002834,40.6585366 328.243422,54.4559099 328.243422,58.7598499 C328.243422,62.7748593 328.949939,67.9418386 328.949939,67.9418386 C328.949939,68.4146341 329.259749,68.9362101 329.788692,68.9362101 C330.317636,68.9362101 330.589664,68.4371482 330.589664,67.9606004 C330.589664,67.9606004 331.364188,62.8499062 331.364188,58.7485929 C331.364188,53.9268293 330.544326,40.6322702 330.544326,40.6322702 C330.457428,40.1369606 330.287411,39.7954972 329.758467,39.7954972 L329.758467,39.7954972 Z M343.091621,37.3452158 C342.585346,37.3452158 342.260424,37.8667917 342.260424,38.3433396 C342.260424,38.3433396 341.46323,44.4258912 341.46323,58.7598499 C341.46323,62.7748593 342.113075,67.7242026 342.113075,67.7242026 C342.113075,68.1969981 342.611793,68.9362101 343.118068,68.9362101 C343.624342,68.9362101 344.085279,68.2195122 344.085279,67.7429644 C344.085279,67.7429644 344.754014,62.8499062 344.754014,58.7485929 C344.754014,42.7485929 343.949265,38.3170732 343.949265,38.3170732 C343.866145,37.8217636 343.597895,37.3452158 343.091621,37.3452158 L343.091621,37.3452158 Z M338.644717,39.8667917 C338.138443,39.8667917 337.817299,40.3883677 337.817299,40.8649156 C337.817299,40.8649156 337.069221,47.3639775 337.069221,58.7598499 C337.069221,62.7748593 337.66995,67.7242026 337.66995,67.7242026 C337.66995,68.1969981 338.16489,68.9362101 338.671164,68.9362101 C339.181217,68.9362101 339.638375,68.2195122 339.638375,67.7429644 C339.638375,67.7429644 340.307111,62.8499062 340.307111,58.7485929 C340.307111,46.3283302 339.502361,40.8424015 339.502361,40.8424015 C339.419242,40.3470919 339.150992,39.8667917 338.644717,39.8667917 L338.644717,39.8667917 Z M334.197814,37.8330206 C333.69154,37.8330206 333.476184,38.2195122 333.476184,38.69606 C333.476184,38.69606 332.622318,53.2589118 332.622318,58.7598499 C332.622318,62.7748593 333.29861,67.8292683 333.29861,67.8292683 C333.400621,68.3921201 333.717987,68.9362101 334.224261,68.9362101 C334.730536,68.9362101 335.05168,68.3245779 335.131021,67.8255159 C335.131021,67.8255159 335.807313,62.8499062 335.807313,58.7485929 C335.807313,52.6097561 334.945891,38.6697936 334.945891,38.6697936 C334.862772,38.1744841 334.704089,37.8330206 334.197814,37.8330206 L334.197814,37.8330206 Z" id="SoundCloud" sketch:type="MSShapeGroup"></path>
            <path d="M280.772097,43.8439247 L273.808735,43.8439247 C274.313807,45.8103912 274.616022,47.8720762 274.616022,50 C274.616022,63.5955289 263.595529,74.6160215 250,74.6160215 C236.404471,74.6160215 225.383978,63.5955289 225.383978,50 C225.383978,47.8720762 225.686193,45.8103912 226.191265,43.8439247 L219.227903,43.8439247 L219.227903,77.6919892 C219.227903,79.3893604 220.6065,80.7679569 222.308011,80.7679569 L277.691989,80.7679569 C279.3935,80.7679569 280.772097,79.3893604 280.772097,77.6919892 L280.772097,43.8439247 L280.772097,43.8439247 Z M280.772097,22.3038708 C280.772097,20.6064997 279.3935,19.2279031 277.691989,19.2279031 L268.464086,19.2279031 C266.762575,19.2279031 265.388118,20.6064997 265.388118,22.3038708 L265.388118,31.5359139 C265.388118,33.237425 266.762575,34.6118816 268.464086,34.6118816 L277.691989,34.6118816 C279.3935,34.6118816 280.772097,33.237425 280.772097,31.5359139 L280.772097,22.3038708 L280.772097,22.3038708 Z M250,34.6118816 C241.500724,34.6118816 234.616022,41.5007245 234.616022,50 C234.616022,58.4951356 241.500724,65.3839785 250,65.3839785 C258.495136,65.3839785 265.388118,58.4951356 265.388118,50 C265.388118,41.5007245 258.495136,34.6118816 250,34.6118816 L250,34.6118816 Z M280.772097,90 L219.227903,90 C214.13165,90 210,85.8683502 210,80.7679569 L210,19.2279031 C210,14.1316498 214.13165,10 219.227903,10 L280.772097,10 C285.86835,10 290,14.1316498 290,19.2279031 L290,80.7679569 C290,85.8683502 285.86835,90 280.772097,90 L280.772097,90 Z" id="Instagram" sketch:type="MSShapeGroup"></path>
            <g id="Github" sketch:type="MSLayerGroup" transform="translate(100.000000, 0.000000)">
                <path d="M50.0900826,0.37394958 C22.5305785,0.37394958 0.182644628,23.0932773 0.182644628,51.1201681 C0.182644628,73.5411765 14.4826446,92.5630252 34.3123967,99.2731092 C36.8066116,99.7428571 37.722314,98.1722689 37.722314,96.8319328 C37.722314,95.6218487 37.6760331,91.6243697 37.6545455,87.3840336 C23.7702479,90.4537815 20.8404959,81.3966387 20.8404959,81.3966387 C18.5702479,75.5310924 15.2991736,73.9714286 15.2991736,73.9714286 C10.7710744,70.8218487 15.6404959,70.8865546 15.6404959,70.8865546 C20.6520661,71.2445378 23.2909091,76.1159664 23.2909091,76.1159664 C27.7421488,83.8739496 34.9661157,81.6310924 37.8140496,80.3344538 C38.2619835,77.0546218 39.5553719,74.8159664 40.9826446,73.5487395 C29.8975207,72.2655462 18.2446281,67.9142857 18.2446281,48.4697479 C18.2446281,42.9294118 20.1942149,38.402521 23.3867769,34.8487395 C22.868595,33.5705882 21.1603306,28.4092437 23.8702479,21.4193277 C23.8702479,21.4193277 28.061157,20.0554622 37.5983471,26.6210084 C41.5793388,25.4966387 45.8487603,24.9327731 50.0900826,24.9134454 C54.331405,24.9327731 58.6041322,25.4966387 62.592562,26.6210084 C72.1181818,20.0554622 76.3033058,21.4193277 76.3033058,21.4193277 C79.0198347,28.4092437 77.3107438,33.5705882 76.792562,34.8487395 C79.992562,38.402521 81.9289256,42.9294118 81.9289256,48.4697479 C81.9289256,67.9605042 70.253719,72.2521008 59.1404959,73.5084034 C60.9305785,75.0831933 62.5256198,78.1714286 62.5256198,82.9058824 C62.5256198,89.6957983 62.4677686,95.1605042 62.4677686,96.8319328 C62.4677686,98.1823529 63.3661157,99.7647059 65.8958678,99.2663866 C85.714876,92.5487395 99.9966942,73.5336134 99.9966942,51.1201681 C99.9966942,23.0932773 77.6520661,0.37394958 50.0900826,0.37394958" id="Fill-4" sketch:type="MSShapeGroup"></path>
                <path d="M19.085124,73.2344538 C18.9752066,73.4865546 18.585124,73.5621849 18.2297521,73.3890756 C17.8677686,73.2235294 17.6644628,72.8798319 17.7818182,72.6268908 C17.8892562,72.3672269 18.2801653,72.294958 18.6413223,72.4689076 C19.0041322,72.6344538 19.2107438,72.9815126 19.085124,73.2344538" id="Fill-5" sketch:type="MSShapeGroup"></path>
                <path d="M21.1066116,75.5268908 C20.868595,75.7512605 20.4033058,75.6470588 20.0876033,75.292437 C19.761157,74.9386555 19.7,74.4655462 19.9413223,74.2378151 C20.1867769,74.0134454 20.6380165,74.1184874 20.9652893,74.4722689 C21.2917355,74.8302521 21.3553719,75.3 21.1066116,75.5268908" id="Fill-6" sketch:type="MSShapeGroup"></path>
                <path d="M23.0743802,78.4495798 C22.768595,78.6655462 22.268595,78.4630252 21.9595041,78.0117647 C21.653719,77.5605042 21.653719,77.0193277 21.9661157,76.802521 C22.2760331,76.5857143 22.768595,76.7806723 23.0818182,77.2285714 C23.3867769,77.687395 23.3867769,78.2285714 23.0743802,78.4495798" id="Fill-7" sketch:type="MSShapeGroup"></path>
                <path d="M25.7702479,81.2731092 C25.4966942,81.5798319 24.9140496,81.497479 24.4876033,81.0789916 C24.0512397,80.6697479 23.9297521,80.0890756 24.2041322,79.7823529 C24.4809917,79.4747899 25.0669421,79.5613445 25.4966942,79.9764706 C25.9297521,80.3848739 26.0619835,80.9697479 25.7702479,81.2731092" id="Fill-8" sketch:type="MSShapeGroup"></path>
                <path d="M29.4892562,82.912605 C29.368595,83.310084 28.807438,83.4907563 28.2421488,83.3218487 C27.677686,83.1478992 27.3082645,82.6823529 27.422314,82.2806723 C27.5396694,81.8806723 28.1033058,81.692437 28.6727273,81.8731092 C29.2363636,82.0462185 29.6066116,82.5084034 29.4892562,82.912605" id="Fill-9" sketch:type="MSShapeGroup"></path>
                <path d="M33.5735537,83.2168067 C33.5876033,83.6352941 33.1082645,83.9823529 32.514876,83.989916 C31.9181818,84.0033613 31.4355372,83.6647059 31.4289256,83.2529412 C31.4289256,82.8302521 31.8975207,82.4865546 32.4942149,82.4764706 C33.0876033,82.4647059 33.5735537,82.8008403 33.5735537,83.2168067" id="Fill-10" sketch:type="MSShapeGroup"></path>
                <path d="M37.3743802,82.5588235 C37.4454545,82.9672269 37.0330579,83.3865546 36.4438017,83.4983193 C35.8644628,83.6058824 35.3280992,83.3537815 35.2545455,82.9487395 C35.1826446,82.5302521 35.6024793,82.1109244 36.1809917,82.002521 C36.7710744,81.8983193 37.2991736,82.1436975 37.3743802,82.5588235" id="Fill-11" sketch:type="MSShapeGroup"></path>
            </g>
            <path d="M50,0 C22.3869347,0 0,22.3869347 0,50 C0,77.6214405 22.3869347,100 50,100 C77.6172529,100 100,77.6214405 100,50 C100,22.3869347 77.6172529,0 50,0 L50,0 Z M81.7252931,23.0360134 C87.3534338,29.639866 90.9296482,38.0276382 91.5410385,47.2278057 C82.5376884,46.7504188 71.758794,46.758794 63.0946399,47.5753769 C62.0058626,44.8073702 60.879397,42.0979899 59.6691792,39.501675 C69.660804,35.180067 77.3492462,29.501675 81.7252931,23.0360134 L81.7252931,23.0360134 Z M50,8.33752094 C60.1046901,8.33752094 69.3676717,11.938861 76.5829146,17.9271357 C72.0519263,23.6599665 64.9623116,28.6390285 56.10134,32.3994975 C51.2520938,23.4505863 45.6909548,15.741206 39.7529313,9.65661642 C43.0360134,8.82328308 46.4572864,8.33752094 50,8.33752094 L50,8.33752094 Z M31.1474037,12.8768844 C37.1691792,18.8567839 42.818258,26.5033501 47.7596315,35.4187605 C38.3500838,38.2830821 27.5670017,39.9329983 16.0720268,39.9329983 C13.89866,39.9329983 11.758794,39.8534338 9.639866,39.7319933 C12.6256281,27.9941374 20.5820771,18.2579564 31.1474037,12.8768844 L31.1474037,12.8768844 Z M8.40452261,48.0108878 C10.7747069,48.1155779 13.1700168,48.1574539 15.6030151,48.1323283 C28.718593,47.9690117 40.9505863,45.9296482 51.4363484,42.5628141 C52.4162479,44.6231156 53.3542714,46.7336683 54.2504188,48.89866 C52.818258,49.2294807 51.5494137,49.5938023 50.5276382,50.020938 C36.1725293,56.0343384 24.8785595,65.7537688 18.7520938,77.5 C12.2864322,70.1549414 8.33333333,60.5527638 8.33333333,50 C8.33333333,49.3341709 8.37520938,48.6725293 8.40452261,48.0108878 L8.40452261,48.0108878 Z M50,91.6666667 C40.3685092,91.6666667 31.5242881,88.3752094 24.4639866,82.881072 C30.0083752,71.9011725 39.9036851,62.8140704 52.3869347,57.1566164 C53.5678392,56.6164154 55.1256281,56.1725293 56.9179229,55.7830821 C58.3919598,59.9078727 59.7403685,64.1792295 60.8919598,68.5929648 C62.7051926,75.5025126 63.9656616,82.3073702 64.7487437,88.9363484 C60.159129,90.6825796 55.201005,91.6666667 50,91.6666667 L50,91.6666667 Z M72.5167504,85.0293132 C71.7336683,78.3375209 70.4606365,71.4656616 68.6348409,64.4849246 C67.7470687,61.10134 66.7294807,57.818258 65.6490787,54.6063652 C73.8190955,53.9363484 83.6222781,54.0410385 91.39866,54.6063652 C89.9832496,67.3827471 82.8098827,78.3919598 72.5167504,85.0293132 L72.5167504,85.0293132 Z" id="Dribbble" sketch:type="MSShapeGroup"></path>
        </g>
    </g>
</svg>